PathFileType	4	(X/Y/Z)	SUBJ89_2_walk_RCNL2025.trc
DataRate	CameraRate	NumFrames	NumMarkers	Units	OrigDataRate	OrigDataStartFrame	OrigNumFrames
100	100	6	25	mm	100	103	274
Frame#	Time	R_Shoulder			L_Shoulder			C7			J_Notch			R_Elbow			L_Elbow			R_Wrist			L_Wrist			R_Asis			L_Asis			Sacral			Thoracic			Sternum			R_Thigh_Lateral			R_Knee_Lateral			R_Shank_Lateral			R_Ankle_Lateral			R_Heel			R_Toe			L_Thigh_Lateral			L_Knee_Lateral			L_Shank_Lateral			L_Ankle_Lateral			L_Heel			L_Toe		
		X1	Y1	Z1	X2	Y2	Z2	X3	Y3	Z3	X4	Y4	Z4	X5	Y5	Z5	X6	Y6	Z6	X7	Y7	Z7	X8	Y8	Z8	X9	Y9	Z9	X10	Y10	Z10	X11	Y11	Z11	X12	Y12	Z12	X13	Y13	Z13	X14	Y14	Z14	X15	Y15	Z15	X16	Y16	Z16	X17	Y17	Z17	X18	Y18	Z18	X19	Y19	Z19	X20	Y20	Z20	X21	Y21	Z21	X22	Y22	Z22	X23	Y23	Z23	X24	Y24	Z24	X25	Y25	Z25
103	1.02000000	391.089264	1388.585815	-10.408202	347.522522	1401.411377	-424.759003	304.588867	1484.924927	-208.992126	422.847717	1360.051392	-217.912323	333.640778	1057.638916	45.684803	254.379288	1069.583740	-460.775513	489.865219	835.843811	15.561887	302.786560	807.810211	-493.028809	398.684387	963.513794	-92.081665	418.327179	959.581543	-330.480408	242.746933	1024.234009	-217.713684	221.127777	1304.816895	-206.612335	456.606384	1212.456665	-229.486877	253.023895	595.324890	-43.271580	204.555679	485.468811	-105.673042	96.916718	282.889832	-71.517311	9.062001	97.887314	-156.850677	-26.386335	100.560394	-204.526703	155.883102	33.357998	-162.870041	490.778381	549.654907	-424.656555	526.148438	487.530609	-350.021637	576.974548	261.040527	-395.143372	657.601440	75.767555	-327.040802	621.281128	68.400383	-276.707550	809.364075	106.483055	-316.935303
104	1.03000000	406.057861	1386.262207	-11.331911	362.914825	1398.445435	-425.788269	319.857635	1482.481567	-210.170395	438.220093	1357.630859	-218.759460	348.572754	1055.233521	44.472881	269.108856	1066.969482	-461.049316	505.384995	833.772705	15.058128	311.626251	804.444550	-494.127380	413.676788	961.046997	-91.933014	434.496796	957.132874	-330.454132	258.253235	1021.679504	-218.493439	236.444885	1302.475708	-207.570816	472.069305	1210.018921	-229.988876	264.602570	594.246338	-42.790337	214.766266	484.784912	-105.149902	103.173889	284.341095	-70.527176	10.901485	101.238747	-155.310837	-24.719408	104.918663	-202.643524	156.004639	33.345123	-162.742676	508.250763	548.078613	-423.622070	542.648438	485.822327	-348.872162	594.898376	259.409760	-393.668762	676.359131	74.705742	-325.154572	639.646301	67.199928	-275.048553	828.037231	105.928009	-313.543274
105	1.04000000	421.173309	1384.108887	-12.350079	378.479767	1395.613037	-426.903137	335.250275	1480.179321	-211.453735	453.733948	1355.367310	-219.694031	363.340240	1053.038940	43.126865	284.142395	1064.460083	-461.346313	520.418732	831.659637	14.650572	320.952011	801.324738	-495.150620	429.037506	958.599731	-91.909088	450.865753	955.085449	-330.576538	274.009369	1019.252136	-219.154495	251.926163	1300.244629	-208.584610	487.718811	1207.756226	-230.576660	277.013336	593.060364	-42.388897	225.947647	483.923492	-104.641098	110.233490	285.857422	-69.471413	13.123725	104.975807	-153.522797	-22.665842	109.814331	-200.473785	156.103516	33.298695	-162.614929	526.511658	547.305176	-422.525818	559.486206	484.299347	-347.736908	610.760010	257.427032	-391.800842	691.475525	72.821541	-322.913635	654.504822	65.628372	-272.905060	843.206299	102.903030	-310.348846
106	1.05000000	436.426941	1382.165527	-13.463571	394.224274	1392.953247	-428.111786	350.759796	1478.056030	-212.848343	469.389252	1353.302368	-220.714478	377.938599	1051.092285	41.661709	299.440155	1062.093750	-461.666504	534.947571	829.530579	14.337578	330.813873	798.483856	-496.080200	444.773804	956.195618	-92.017723	467.399170	953.486572	-330.834076	290.005157	1017.018188	-219.679276	267.573914	1298.161621	-209.672256	503.563141	1205.712891	-231.240509	290.349731	591.738647	-42.084259	238.239349	482.841003	-104.144440	118.190620	287.449310	-68.382126	15.849864	109.143494	-151.543060	-20.052235	115.310394	-198.094269	156.166916	33.209232	-162.484329	545.152161	547.117249	-421.383209	576.592590	482.987244	-346.592865	624.930115	255.252548	-389.660492	703.362549	70.304741	-320.514374	666.191711	63.847382	-270.522003	855.290161	97.532890	-307.341888
107	1.06000000	451.800446	1380.468750	-14.666709	410.153931	1390.504028	-429.418213	366.380615	1476.159424	-214.356232	485.179626	1351.482056	-221.815918	392.367157	1049.426636	40.092365	314.962830	1059.908203	-462.011383	548.952271	827.411652	14.116908	341.258759	795.948456	-496.895294	460.865021	953.877686	-92.254631	484.048523	952.364014	-331.202606	306.208984	1015.051208	-220.054947	283.381195	1296.279175	-210.852798	519.603333	1203.940430	-231.973618	304.704346	590.263367	-41.886364	251.790298	481.503510	-103.649307	127.140434	289.147583	-67.295357	19.239435	113.787636	-149.454819	-16.657173	121.473785	-195.611404	156.186661	33.069530	-162.348083	563.885803	547.418396	-420.203278	593.876587	481.935822	-345.424438	637.908569	253.130859	-387.406708	712.604614	67.474518	-318.167358	675.209595	62.119499	-268.164551	864.858704	90.168175	-304.489777
108	1.07000000	467.269012	1379.056885	-15.945468	426.269562	1388.303711	-430.820007	382.109406	1474.548584	-215.973511	501.087952	1349.956787	-222.990265	406.629059	1048.074585	38.430893	330.676147	1057.942139	-462.381622	562.410217	825.330475	13.987370	352.330841	793.741333	-497.581802	477.258545	951.705994	-92.605446	500.751343	951.730164	-331.651794	322.565796	1013.425110	-220.272690	299.329163	1294.664185	-212.136765	535.828796	1202.496460	-232.771484	320.168365	588.626282	-41.795528	266.751862	479.891144	-103.137428	137.182770	291.002075	-66.243530	23.501995	118.954338	-147.357117	-12.217644	128.369705	-193.144211	156.168533	32.878033	-162.204117	582.597595	548.226624	-418.992126	611.244019	481.222412	-344.224243	650.262695	251.346237	-385.222412	719.867737	64.706009	-316.064331	682.147888	60.733616	-266.077362	872.545349	81.364365	-301.768005
